Saira-PARAMETRIC-JUN_GRAD-max.ufo
<glyph name="quotesingle" format="2">
  <advance width="157"/>
  <unicode hex="0027"/>
  <anchor x="0" y="0" name="#entry"/>
  <anchor x="163.04" y="0" name="#exit"/>
  <outline>
    <contour>
      <point x="45.2" y="444" type="line"/>
      <point x="101.2" y="444" type="line"/>
      <point x="113.2" y="612" type="line"/>
      <point x="113.2" y="688" type="line"/>
      <point x="34.2" y="688" type="line"/>
      <point x="34.2" y="612" type="line"/>
    </contour>
  </outline>
</glyph>
<glyph name="comma" format="2">
  <advance width="210"/>
  <unicode hex="002C"/>
  <outline>
    <contour>
      <point x="34.2" y="-132" type="line"/>
      <point x="151.68" y="-132"/>
      <point x="176.32" y="-110"/>
      <point x="176.32" y="0" type="curve" smooth="yes"/>
      <point x="176.32" y="128" type="line"/>
      <point x="47.6" y="128" type="line"/>
      <point x="47.6" y="0" type="line"/>
      <point x="102.16" y="0" type="line"/>
      <point x="102.16" y="-26" type="line" smooth="yes"/>
      <point x="102.16" y="-64.4"/>
      <point x="90.44" y="-72"/>
      <point x="34.2" y="-72" type="curve"/>
    </contour>
  </outline>
</glyph>
<glyph name="period" format="2">
  <advance width="210"/>
  <unicode hex="002E"/>
  <outline>
    <contour>
      <point x="47.6" y="0" type="line"/>
      <point x="176.32" y="0" type="line"/>
      <point x="176.32" y="128" type="line"/>
      <point x="47.6" y="128" type="line"/>
    </contour>
  </outline>
</glyph>
<glyph name="A" format="2">
  <advance width="626"/>
  <unicode hex="0041"/>
  <anchor x="303" y="0" name="bottom"/>
  <anchor x="549" y="10" name="ogonek"/>
  <anchor x="303" y="688" name="top"/>
  <outline>
    <contour>
      <point x="9" y="0" type="line"/>
      <point x="125" y="0" type="line"/>
      <point x="306" y="600" type="line"/>
      <point x="310" y="600" type="line"/>
      <point x="491" y="0" type="line"/>
      <point x="607" y="0" type="line"/>
      <point x="392" y="688" type="line"/>
      <point x="225" y="688" type="line"/>
    </contour>
    <contour>
      <point x="125" y="176" type="line"/>
      <point x="492" y="176" type="line"/>
      <point x="457" y="276" type="line"/>
      <point x="160" y="276" type="line"/>
    </contour>
  </outline>
</glyph>
<glyph name="B" format="2">
  <advance width="681"/>
  <unicode hex="0042"/>
  <anchor x="358" y="0" name="bottom"/>
  <anchor x="358" y="688" name="top"/>
  <outline>
    <contour>
      <point x="90" y="0" type="line"/>
      <point x="343" y="0" type="line" smooth="yes"/>
      <point x="548" y="0"/>
      <point x="604" y="40"/>
      <point x="604" y="188" type="curve" smooth="yes"/>
      <point x="604" y="195" type="line" smooth="yes"/>
      <point x="604" y="335"/>
      <point x="547" y="375"/>
      <point x="343" y="375" type="curve" smooth="yes"/>
      <point x="179" y="375" type="line"/>
      <point x="179" y="304" type="line"/>
      <point x="353" y="304" type="line" smooth="yes"/>
      <point x="471" y="304"/>
      <point x="492" y="290"/>
      <point x="492" y="214" type="curve" smooth="yes"/>
      <point x="492" y="184" type="line" smooth="yes"/>
      <point x="492" y="108"/>
      <point x="471" y="95"/>
      <point x="353" y="95" type="curve" smooth="yes"/>
      <point x="151" y="95" type="line"/>
      <point x="202" y="43" type="line"/>
      <point x="202" y="645" type="line"/>
      <point x="151" y="593" type="line"/>
      <point x="346" y="593" type="line" smooth="yes"/>
      <point x="459" y="593"/>
      <point x="478" y="581"/>
      <point x="478" y="510" type="curve" smooth="yes"/>
      <point x="478" y="480" type="line" smooth="yes"/>
      <point x="478" y="409"/>
      <point x="457" y="396"/>
      <point x="339" y="396" type="curve" smooth="yes"/>
      <point x="179" y="396" type="line"/>
      <point x="179" y="325" type="line"/>
      <point x="329" y="325" type="line" smooth="yes"/>
      <point x="533" y="325"/>
      <point x="590" y="364"/>
      <point x="590" y="499" type="curve" smooth="yes"/>
      <point x="590" y="506" type="line" smooth="yes"/>
      <point x="590" y="649"/>
      <point x="535" y="688"/>
      <point x="336" y="688" type="curve" smooth="yes"/>
      <point x="90" y="688" type="line"/>
    </contour>
  </outline>
</glyph>
<glyph name="C" format="2">
  <advance width="587"/>
  <unicode hex="0043"/>
  <anchor x="276" y="0" name="bottom"/>
  <anchor x="276" y="688" name="top"/>
  <outline>
    <contour>
      <point x="353" y="-8" type="curve" smooth="yes"/>
      <point x="405" y="-8"/>
      <point x="467" y="-3"/>
      <point x="501" y="4" type="curve"/>
      <point x="501" y="96" type="line"/>
      <point x="467" y="91"/>
      <point x="408" y="87"/>
      <point x="353" y="87" type="curve" smooth="yes"/>
      <point x="191" y="87"/>
      <point x="180" y="104"/>
      <point x="180" y="310" type="curve" smooth="yes"/>
      <point x="180" y="378" type="line" smooth="yes"/>
      <point x="180" y="584"/>
      <point x="191" y="601"/>
      <point x="353" y="601" type="curve" smooth="yes"/>
      <point x="404" y="601"/>
      <point x="456" y="597"/>
      <point x="497" y="592" type="curve"/>
      <point x="497" y="682" type="line"/>
      <point x="464" y="690"/>
      <point x="403" y="696"/>
      <point x="353" y="696" type="curve" smooth="yes"/>
      <point x="110" y="696"/>
      <point x="68" y="644"/>
      <point x="68" y="349" type="curve" smooth="yes"/>
      <point x="68" y="339" type="line" smooth="yes"/>
      <point x="68" y="44"/>
      <point x="110" y="-8"/>
    </contour>
  </outline>
</glyph>
<glyph name="D" format="2">
  <advance width="662"/>
  <unicode hex="0044"/>
  <anchor x="336" y="0" name="bottom"/>
  <anchor x="174" y="344" name="center"/>
  <anchor x="336" y="688" name="top"/>
  <outline>
    <contour>
      <point x="90" y="0" type="line"/>
      <point x="313" y="0" type="line" smooth="yes"/>
      <point x="553" y="0"/>
      <point x="594" y="48"/>
      <point x="594" y="339" type="curve" smooth="yes"/>
      <point x="594" y="349" type="line" smooth="yes"/>
      <point x="594" y="640"/>
      <point x="553" y="688"/>
      <point x="313" y="688" type="curve" smooth="yes"/>
      <point x="90" y="688" type="line"/>
    </contour>
    <contour>
      <point x="202" y="62" type="line"/>
      <point x="202" y="626" type="line"/>
      <point x="151" y="593" type="line"/>
      <point x="313" y="593" type="line" smooth="yes"/>
      <point x="471" y="593"/>
      <point x="482" y="578"/>
      <point x="482" y="377" type="curve" smooth="yes"/>
      <point x="482" y="311" type="line" smooth="yes"/>
      <point x="482" y="110"/>
      <point x="471" y="95"/>
      <point x="313" y="95" type="curve" smooth="yes"/>
      <point x="151" y="95" type="line"/>
    </contour>
  </outline>
</glyph>
<glyph name="E" format="2">
  <advance width="578"/>
  <unicode hex="0045"/>
  <anchor x="280" y="0" name="bottom"/>
  <anchor x="502" y="10" name="ogonek"/>
  <anchor x="280" y="688" name="top"/>
  <anchor x="22" y="688" name="topleft"/>
  <outline>
    <contour>
      <point x="157" y="396" type="line"/>
      <point x="157" y="300" type="line"/>
      <point x="490" y="300" type="line"/>
      <point x="490" y="396" type="line"/>
    </contour>
    <contour>
      <point x="202" y="50" type="line"/>
      <point x="202" y="638" type="line"/>
      <point x="157" y="593" type="line"/>
      <point x="533" y="593" type="line"/>
      <point x="533" y="688" type="line"/>
      <point x="90" y="688" type="line"/>
      <point x="90" y="0" type="line"/>
      <point x="533" y="0" type="line"/>
      <point x="533" y="95" type="line"/>
      <point x="157" y="95" type="line"/>
    </contour>
  </outline>
</glyph>
<glyph name="F" format="2">
  <advance width="559"/>
  <unicode hex="0046"/>
  <anchor x="307" y="0" name="bottom"/>
  <anchor x="307" y="688" name="top"/>
  <outline>
    <contour>
      <point x="165" y="380" type="line"/>
      <point x="165" y="284" type="line"/>
      <point x="480" y="284" type="line"/>
      <point x="480" y="380" type="line"/>
    </contour>
    <contour>
      <point x="202" y="0" type="line"/>
      <point x="202" y="638" type="line"/>
      <point x="165" y="593" type="line"/>
      <point x="523" y="593" type="line"/>
      <point x="523" y="688" type="line"/>
      <point x="90" y="688" type="line"/>
      <point x="90" y="0" type="line"/>
    </contour>
  </outline>
</glyph>
<glyph name="G" format="2">
  <advance width="662"/>
  <unicode hex="0047"/>
  <anchor x="333" y="0" name="bottom"/>
  <anchor x="333" y="688" name="top"/>
  <outline>
    <contour>
      <point x="385" y="-8" type="curve" smooth="yes"/>
      <point x="456" y="-8"/>
      <point x="533" y="0"/>
      <point x="576" y="13" type="curve"/>
      <point x="576" y="383" type="line"/>
      <point x="336" y="383" type="line"/>
      <point x="336" y="291" type="line"/>
      <point x="468" y="291" type="line"/>
      <point x="468" y="91" type="line"/>
      <point x="438" y="88"/>
      <point x="409" y="87"/>
      <point x="377" y="87" type="curve" smooth="yes"/>
      <point x="193" y="87"/>
      <point x="180" y="102"/>
      <point x="180" y="310" type="curve" smooth="yes"/>
      <point x="180" y="378" type="line" smooth="yes"/>
      <point x="180" y="586"/>
      <point x="193" y="601"/>
      <point x="382" y="601" type="curve" smooth="yes"/>
      <point x="453" y="601"/>
      <point x="521" y="598"/>
      <point x="571" y="593" type="curve"/>
      <point x="571" y="683" type="line"/>
      <point x="527" y="691"/>
      <point x="449" y="696"/>
      <point x="384" y="696" type="curve" smooth="yes"/>
      <point x="115" y="696"/>
      <point x="68" y="645"/>
      <point x="68" y="349" type="curve" smooth="yes"/>
      <point x="68" y="339" type="line" smooth="yes"/>
      <point x="68" y="43"/>
      <point x="116" y="-8"/>
    </contour>
  </outline>
</glyph>
<glyph name="H" format="2">
  <advance width="714"/>
  <unicode hex="0048"/>
  <anchor x="357" y="0" name="bottom"/>
  <anchor x="357" y="550" name="center"/>
  <anchor x="357" y="688" name="top"/>
  <anchor x="43" y="688" name="topleft"/>
  <outline>
    <contour>
      <point x="90" y="0" type="line"/>
      <point x="202" y="0" type="line"/>
      <point x="202" y="347" type="line"/>
      <point x="151" y="299" type="line"/>
      <point x="563" y="299" type="line"/>
      <point x="512" y="347" type="line"/>
      <point x="512" y="0" type="line"/>
      <point x="624" y="0" type="line"/>
      <point x="624" y="688" type="line"/>
      <point x="512" y="688" type="line"/>
      <point x="512" y="347" type="line"/>
      <point x="563" y="395" type="line"/>
      <point x="151" y="395" type="line"/>
      <point x="202" y="347" type="line"/>
      <point x="202" y="688" type="line"/>
      <point x="90" y="688" type="line"/>
    </contour>
  </outline>
</glyph>
<glyph name="I" format="2">
  <advance width="292"/>
  <unicode hex="0049"/>
  <anchor x="160" y="0" name="bottom"/>
  <anchor x="266" y="10" name="ogonek"/>
  <anchor x="160" y="688" name="top"/>
  <anchor x="48" y="688" name="topleft"/>
  <outline>
    <contour>
      <point x="90" y="0" type="line"/>
      <point x="202" y="0" type="line"/>
      <point x="202" y="688" type="line"/>
      <point x="90" y="688" type="line"/>
    </contour>
  </outline>
</glyph>
<glyph name="J" format="2">
  <advance width="337"/>
  <unicode hex="004A"/>
  <anchor x="165" y="0" name="bottom"/>
  <anchor x="165" y="688" name="top"/>
  <outline>
    <contour>
      <point x="247" y="688" type="line"/>
      <point x="135" y="688" type="line"/>
      <point x="135" y="167" type="line" smooth="yes"/>
      <point x="135" y="101"/>
      <point x="115" y="88"/>
      <point x="5" y="88" type="curve"/>
      <point x="5" y="-4" type="line"/>
      <point x="194" y="-4"/>
      <point x="247" y="35"/>
      <point x="247" y="174" type="curve" smooth="yes"/>
    </contour>
  </outline>
</glyph>
<glyph name="K" format="2">
  <advance width="636"/>
  <unicode hex="004B"/>
  <anchor x="399" y="0" name="bottom"/>
  <anchor x="399" y="688" name="top"/>
  <outline>
    <contour>
      <point x="197" y="302" type="line"/>
      <point x="302" y="302" type="line"/>
      <point x="494" y="0" type="line"/>
      <point x="627" y="0" type="line"/>
      <point x="400" y="350" type="line"/>
      <point x="618" y="688" type="line"/>
      <point x="485" y="688" type="line"/>
      <point x="302" y="398" type="line"/>
      <point x="197" y="398" type="line"/>
    </contour>
    <contour>
      <point x="90" y="0" type="line"/>
      <point x="202" y="0" type="line"/>
      <point x="202" y="688" type="line"/>
      <point x="90" y="688" type="line"/>
    </contour>
  </outline>
</glyph>
<glyph name="L" format="2">
  <advance width="543"/>
  <unicode hex="004C"/>
  <anchor x="265" y="0" name="bottom"/>
  <anchor x="265" y="344" name="center"/>
  <anchor x="265" y="688" name="top"/>
  <anchor x="497" y="688" name="topright"/>
  <outline>
    <contour>
      <point x="90" y="0" type="line"/>
      <point x="513" y="0" type="line"/>
      <point x="513" y="95" type="line"/>
      <point x="157" y="95" type="line"/>
      <point x="202" y="50" type="line"/>
      <point x="202" y="688" type="line"/>
      <point x="90" y="688" type="line"/>
    </contour>
  </outline>
</glyph>
<glyph name="M" format="2">
  <advance width="796"/>
  <unicode hex="004D"/>
  <outline>
    <contour>
      <point x="90" y="0" type="line"/>
      <point x="202" y="0" type="line"/>
      <point x="202" y="537" type="line"/>
      <point x="350" y="0" type="line"/>
      <point x="446" y="0" type="line"/>
      <point x="594" y="537" type="line"/>
      <point x="594" y="0" type="line"/>
      <point x="706" y="0" type="line"/>
      <point x="706" y="688" type="line"/>
      <point x="543" y="688" type="line"/>
      <point x="398" y="160" type="line"/>
      <point x="253" y="688" type="line"/>
      <point x="90" y="688" type="line"/>
    </contour>
  </outline>
</glyph>
<glyph name="N" format="2">
  <advance width="714"/>
  <unicode hex="004E"/>
  <anchor x="355" y="0" name="bottom"/>
  <anchor x="355" y="688" name="top"/>
  <outline>
    <contour>
      <point x="90" y="0" type="line"/>
      <point x="202" y="0" type="line"/>
      <point x="202" y="507" type="line"/>
      <point x="487" y="0" type="line"/>
      <point x="604" y="0" type="line"/>
      <point x="604" y="688" type="line"/>
      <point x="492" y="688" type="line"/>
      <point x="492" y="181" type="line"/>
      <point x="207" y="688" type="line"/>
      <point x="90" y="688" type="line"/>
    </contour>
  </outline>
</glyph>
<glyph name="O" format="2">
  <advance width="708"/>
  <unicode hex="004F"/>
  <anchor x="348" y="-2" name="bottom"/>
  <anchor x="330" y="344" name="center"/>
  <anchor x="599" y="10" name="ogonek"/>
  <anchor x="330" y="688" name="top"/>
  <anchor x="14" y="688" name="topleft"/>
  <anchor x="647" y="688" name="topright"/>
  <outline>
    <contour>
      <point x="355" y="-8" type="curve" smooth="yes"/>
      <point x="594" y="-8"/>
      <point x="640" y="47"/>
      <point x="640" y="339" type="curve" smooth="yes"/>
      <point x="640" y="349" type="line" smooth="yes"/>
      <point x="640" y="641"/>
      <point x="594" y="696"/>
      <point x="355" y="696" type="curve" smooth="yes"/>
      <point x="117" y="696"/>
      <point x="68" y="641"/>
      <point x="68" y="349" type="curve" smooth="yes"/>
      <point x="68" y="339" type="line" smooth="yes"/>
      <point x="68" y="47"/>
      <point x="117" y="-8"/>
    </contour>
    <contour>
      <point x="355" y="87" type="curve" smooth="yes"/>
      <point x="192" y="87"/>
      <point x="180" y="104"/>
      <point x="180" y="313" type="curve" smooth="yes"/>
      <point x="180" y="375" type="line" smooth="yes"/>
      <point x="180" y="584"/>
      <point x="192" y="601"/>
      <point x="355" y="601" type="curve" smooth="yes"/>
      <point x="517" y="601"/>
      <point x="528" y="584"/>
      <point x="528" y="375" type="curve" smooth="yes"/>
      <point x="528" y="313" type="line" smooth="yes"/>
      <point x="528" y="104"/>
      <point x="517" y="87"/>
    </contour>
  </outline>
</glyph>
<glyph name="P" format="2">
  <advance width="572"/>
  <unicode hex="0050"/>
  <anchor x="298" y="0" name="bottom"/>
  <anchor x="298" y="688" name="top"/>
  <outline>
    <contour>
      <point x="90" y="0" type="line"/>
      <point x="202" y="0" type="line"/>
      <point x="202" y="624" type="line"/>
      <point x="153" y="593" type="line"/>
      <point x="307" y="593" type="line" smooth="yes"/>
      <point x="425" y="593"/>
      <point x="434" y="585"/>
      <point x="434" y="476" type="curve" smooth="yes"/>
      <point x="434" y="446" type="line" smooth="yes"/>
      <point x="434" y="338"/>
      <point x="425" y="330"/>
      <point x="307" y="330" type="curve" smooth="yes"/>
      <point x="180" y="330" type="line"/>
      <point x="180" y="234" type="line"/>
      <point x="291" y="234" type="line" smooth="yes"/>
      <point x="503" y="234"/>
      <point x="545" y="273"/>
      <point x="545" y="458" type="curve" smooth="yes"/>
      <point x="545" y="465" type="line" smooth="yes"/>
      <point x="545" y="649"/>
      <point x="503" y="688"/>
      <point x="291" y="688" type="curve" smooth="yes"/>
      <point x="90" y="688" type="line"/>
    </contour>
  </outline>
</glyph>
<glyph name="R" format="2">
  <advance width="624"/>
  <unicode hex="0052"/>
  <anchor x="322" y="0" name="bottom"/>
  <anchor x="322" y="688" name="top"/>
  <outline>
    <contour>
      <point x="90" y="0" type="line"/>
      <point x="202" y="0" type="line"/>
      <point x="202" y="624" type="line"/>
      <point x="153" y="593" type="line"/>
      <point x="310" y="593" type="line" smooth="yes"/>
      <point x="436" y="593"/>
      <point x="443" y="588"/>
      <point x="443" y="485" type="curve" smooth="yes"/>
      <point x="443" y="456" type="line" smooth="yes"/>
      <point x="443" y="352"/>
      <point x="436" y="348"/>
      <point x="310" y="348" type="curve" smooth="yes"/>
      <point x="181" y="348" type="line"/>
      <point x="181" y="252" type="line"/>
      <point x="294" y="252" type="line" smooth="yes"/>
      <point x="511" y="252"/>
      <point x="554" y="289"/>
      <point x="554" y="467" type="curve" smooth="yes"/>
      <point x="554" y="474" type="line" smooth="yes"/>
      <point x="554" y="651"/>
      <point x="511" y="688"/>
      <point x="294" y="688" type="curve" smooth="yes"/>
      <point x="90" y="688" type="line"/>
    </contour>
    <contour>
      <point x="446" y="0" type="line"/>
      <point x="565" y="0" type="line"/>
      <point x="451" y="285" type="line"/>
      <point x="336" y="282" type="line"/>
    </contour>
  </outline>
</glyph>
<glyph name="S" format="2">
  <advance width="620"/>
  <unicode hex="0053"/>
  <anchor x="310" y="0" name="bottom"/>
  <anchor x="310" y="688" name="top"/>
  <outline>
    <contour>
      <point x="299" y="-8" type="curve" smooth="yes"/>
      <point x="501" y="-8"/>
      <point x="557" y="40"/>
      <point x="557" y="202" type="curve" smooth="yes"/>
      <point x="557" y="331"/>
      <point x="521" y="375"/>
      <point x="394" y="389" type="curve" smooth="yes"/>
      <point x="246" y="405" type="line" smooth="yes"/>
      <point x="188" y="411"/>
      <point x="174" y="427"/>
      <point x="174" y="492" type="curve" smooth="yes"/>
      <point x="174" y="583"/>
      <point x="198" y="601"/>
      <point x="320" y="601" type="curve" smooth="yes"/>
      <point x="384" y="601"/>
      <point x="466" y="594"/>
      <point x="529" y="584" type="curve"/>
      <point x="529" y="677" type="line"/>
      <point x="457" y="688"/>
      <point x="375" y="696"/>
      <point x="322" y="696" type="curve" smooth="yes"/>
      <point x="124" y="696"/>
      <point x="63" y="646"/>
      <point x="63" y="492" type="curve" smooth="yes"/>
      <point x="63" y="365"/>
      <point x="99" y="321"/>
      <point x="224" y="307" type="curve" smooth="yes"/>
      <point x="372" y="291" type="line" smooth="yes"/>
      <point x="436" y="284"/>
      <point x="445" y="271"/>
      <point x="445" y="201" type="curve" smooth="yes"/>
      <point x="445" y="106"/>
      <point x="421" y="87"/>
      <point x="297" y="87" type="curve" smooth="yes"/>
      <point x="228" y="87"/>
      <point x="137" y="94"/>
      <point x="69" y="104" type="curve"/>
      <point x="69" y="11" type="line"/>
      <point x="149" y="-1"/>
      <point x="240" y="-8"/>
    </contour>
  </outline>
</glyph>
<glyph name="T" format="2">
  <advance width="520"/>
  <unicode hex="0054"/>
  <anchor x="257" y="0" name="bottom"/>
  <anchor x="257" y="344" name="center"/>
  <anchor x="257" y="688" name="top"/>
  <outline>
    <contour>
      <point x="204" y="0" type="line"/>
      <point x="316" y="0" type="line"/>
      <point x="316" y="636" type="line"/>
      <point x="268" y="591" type="line"/>
      <point x="511" y="591" type="line"/>
      <point x="511" y="688" type="line"/>
      <point x="9" y="688" type="line"/>
      <point x="9" y="591" type="line"/>
      <point x="252" y="591" type="line"/>
      <point x="204" y="636" type="line"/>
    </contour>
  </outline>
</glyph>
<glyph name="U" format="2">
  <advance width="686"/>
  <unicode hex="0055"/>
  <anchor x="345" y="0" name="bottom"/>
  <anchor x="611" y="10" name="ogonek"/>
  <anchor x="345" y="688" name="top"/>
  <anchor x="657" y="688" name="topright"/>
  <outline>
    <contour>
      <point x="343" y="-8" type="curve" smooth="yes"/>
      <point x="549" y="-8"/>
      <point x="600" y="58"/>
      <point x="600" y="315" type="curve" smooth="yes"/>
      <point x="600" y="688" type="line"/>
      <point x="488" y="688" type="line"/>
      <point x="488" y="276" type="line" smooth="yes"/>
      <point x="488" y="112"/>
      <point x="471" y="89"/>
      <point x="343" y="89" type="curve" smooth="yes"/>
      <point x="214" y="89"/>
      <point x="198" y="113"/>
      <point x="198" y="292" type="curve" smooth="yes"/>
      <point x="198" y="688" type="line"/>
      <point x="86" y="688" type="line"/>
      <point x="86" y="331" type="line" smooth="yes"/>
      <point x="86" y="58"/>
      <point x="135" y="-8"/>
    </contour>
  </outline>
</glyph>
<glyph name="V" format="2">
  <advance width="576"/>
  <unicode hex="0056"/>
  <outline>
    <contour>
      <point x="207" y="0" type="line"/>
      <point x="369" y="0" type="line"/>
      <point x="567" y="688" type="line"/>
      <point x="452" y="688" type="line"/>
      <point x="288" y="99" type="line"/>
      <point x="124" y="688" type="line"/>
      <point x="9" y="688" type="line"/>
    </contour>
  </outline>
</glyph>
<glyph name="W" format="2">
  <advance width="730"/>
  <unicode hex="0057"/>
  <outline>
    <contour>
      <point x="116" y="0" type="line"/>
      <point x="276" y="0" type="line"/>
      <point x="365" y="539" type="line"/>
      <point x="455" y="0" type="line"/>
      <point x="614" y="0" type="line"/>
      <point x="721" y="688" type="line"/>
      <point x="612" y="688" type="line"/>
      <point x="532" y="143" type="line"/>
      <point x="439" y="688" type="line"/>
      <point x="291" y="688" type="line"/>
      <point x="198" y="143" type="line"/>
      <point x="118" y="688" type="line"/>
      <point x="9" y="688" type="line"/>
    </contour>
  </outline>
</glyph>
<glyph name="X" format="2">
  <advance width="594"/>
  <unicode hex="0058"/>
  <anchor x="299" y="0" name="bottom"/>
  <anchor x="299" y="510" name="top"/>
  <outline>
    <contour>
      <point x="449" y="0" type="line"/>
      <point x="577" y="0" type="line"/>
      <point x="154" y="688" type="line"/>
      <point x="26" y="688" type="line"/>
    </contour>
    <contour>
      <point x="17" y="0" type="line"/>
      <point x="146" y="0" type="line"/>
      <point x="568" y="688" type="line"/>
      <point x="440" y="688" type="line"/>
    </contour>
  </outline>
</glyph>
<glyph name="Y" format="2">
  <advance width="554"/>
  <unicode hex="0059"/>
  <anchor x="338" y="0" name="bottom"/>
  <anchor x="338" y="688" name="top"/>
  <anchor x="80" y="688" name="topleft"/>
  <outline>
    <contour>
      <point x="221" y="0" type="line"/>
      <point x="333" y="0" type="line"/>
      <point x="333" y="297" type="line"/>
      <point x="314" y="223" type="line"/>
      <point x="545" y="688" type="line"/>
      <point x="419" y="688" type="line"/>
      <point x="276" y="366" type="line"/>
      <point x="132" y="688" type="line"/>
      <point x="9" y="688" type="line"/>
      <point x="240" y="223" type="line"/>
      <point x="221" y="297" type="line"/>
    </contour>
  </outline>
</glyph>
<glyph name="Z" format="2">
  <advance width="583"/>
  <unicode hex="005A"/>
  <anchor x="327" y="0" name="bottom"/>
  <anchor x="327" y="344" name="center"/>
  <anchor x="327" y="688" name="top"/>
  <outline>
    <contour>
      <point x="45" y="0" type="line"/>
      <point x="538" y="0" type="line"/>
      <point x="538" y="95" type="line"/>
      <point x="183" y="95" type="line"/>
      <point x="533" y="603" type="line"/>
      <point x="533" y="688" type="line"/>
      <point x="54" y="688" type="line"/>
      <point x="54" y="593" type="line"/>
      <point x="395" y="593" type="line"/>
      <point x="45" y="85" type="line"/>
    </contour>
  </outline>
</glyph>
<glyph name="a" format="2">
  <advance width="586"/>
  <unicode hex="0061"/>
  <anchor x="301" y="0" name="bottom"/>
  <anchor x="535" y="10" name="ogonek"/>
  <anchor x="301" y="510" name="top"/>
  <outline>
    <contour>
      <point x="230" y="-8" type="curve" smooth="yes"/>
      <point x="320" y="-8"/>
      <point x="370" y="15"/>
      <point x="393" y="68" type="curve"/>
      <point x="396" y="68" type="line"/>
      <point x="405" y="0" type="line"/>
      <point x="505" y="0" type="line"/>
      <point x="505" y="272" type="line" smooth="yes"/>
      <point x="505" y="477"/>
      <point x="467" y="518"/>
      <point x="271" y="518" type="curve" smooth="yes"/>
      <point x="210" y="518"/>
      <point x="153" y="513"/>
      <point x="88" y="504" type="curve"/>
      <point x="88" y="418" type="line"/>
      <point x="143" y="426"/>
      <point x="200" y="430"/>
      <point x="271" y="430" type="curve" smooth="yes"/>
      <point x="385" y="430"/>
      <point x="393" y="421"/>
      <point x="393" y="291" type="curve" smooth="yes"/>
      <point x="393" y="250" type="line" smooth="yes"/>
      <point x="393" y="111"/>
      <point x="371" y="80"/>
      <point x="269" y="80" type="curve" smooth="yes"/>
      <point x="188" y="80"/>
      <point x="175" y="91"/>
      <point x="175" y="154" type="curve" smooth="yes"/>
      <point x="175" y="214"/>
      <point x="193" y="227"/>
      <point x="269" y="227" type="curve" smooth="yes"/>
      <point x="415" y="227" type="line"/>
      <point x="415" y="311" type="line"/>
      <point x="254" y="311" type="line" smooth="yes"/>
      <point x="113" y="311"/>
      <point x="63" y="269"/>
      <point x="63" y="150" type="curve" smooth="yes"/>
      <point x="63" y="36"/>
      <point x="110" y="-8"/>
    </contour>
  </outline>
</glyph>
<glyph name="b" format="2">
  <advance width="604"/>
  <unicode hex="0062"/>
  <anchor x="324" y="0" name="bottom"/>
  <anchor x="169" y="594" name="center"/>
  <anchor x="324" y="510" name="top"/>
  <outline>
    <contour>
      <point x="363" y="-8" type="curve" smooth="yes"/>
      <point x="511" y="-8"/>
      <point x="542" y="37"/>
      <point x="542" y="251" type="curve" smooth="yes"/>
      <point x="542" y="259" type="line" smooth="yes"/>
      <point x="542" y="473"/>
      <point x="511" y="518"/>
      <point x="363" y="518" type="curve" smooth="yes"/>
      <point x="273" y="518"/>
      <point x="223" y="497"/>
      <point x="200" y="448" type="curve"/>
      <point x="196" y="448" type="line"/>
      <point x="196" y="743" type="line"/>
      <point x="85" y="743" type="line"/>
      <point x="85" y="0" type="line"/>
      <point x="186" y="0" type="line"/>
      <point x="196" y="62" type="line"/>
      <point x="200" y="62" type="line"/>
      <point x="223" y="13"/>
      <point x="273" y="-8"/>
    </contour>
    <contour>
      <point x="328" y="84" type="curve" smooth="yes"/>
      <point x="219" y="84"/>
      <point x="196" y="113"/>
      <point x="196" y="245" type="curve" smooth="yes"/>
      <point x="196" y="265" type="line" smooth="yes"/>
      <point x="196" y="397"/>
      <point x="219" y="426"/>
      <point x="328" y="426" type="curve" smooth="yes"/>
      <point x="417" y="426"/>
      <point x="431" y="409"/>
      <point x="431" y="293" type="curve" smooth="yes"/>
      <point x="431" y="217" type="line" smooth="yes"/>
      <point x="431" y="101"/>
      <point x="417" y="84"/>
    </contour>
  </outline>
</glyph>
<glyph name="c" format="2">
  <advance width="478"/>
  <unicode hex="0063"/>
  <anchor x="236" y="0" name="bottom"/>
  <anchor x="236" y="510" name="top"/>
  <outline>
    <contour>
      <point x="307" y="-8" type="curve" smooth="yes"/>
      <point x="352" y="-8"/>
      <point x="405" y="-2"/>
      <point x="436" y="6" type="curve"/>
      <point x="436" y="96" type="line"/>
      <point x="403" y="89"/>
      <point x="346" y="84"/>
      <point x="302" y="84" type="curve" smooth="yes"/>
      <point x="190" y="84"/>
      <point x="182" y="95"/>
      <point x="182" y="234" type="curve" smooth="yes"/>
      <point x="182" y="276" type="line" smooth="yes"/>
      <point x="182" y="415"/>
      <point x="190" y="426"/>
      <point x="302" y="426" type="curve" smooth="yes"/>
      <point x="344" y="426"/>
      <point x="399" y="421"/>
      <point x="431" y="414" type="curve"/>
      <point x="431" y="504" type="line"/>
      <point x="401" y="512"/>
      <point x="351" y="518"/>
      <point x="307" y="518" type="curve" smooth="yes"/>
      <point x="106" y="518"/>
      <point x="70" y="479"/>
      <point x="70" y="259" type="curve" smooth="yes"/>
      <point x="70" y="251" type="line" smooth="yes"/>
      <point x="70" y="31"/>
      <point x="106" y="-8"/>
    </contour>
  </outline>
</glyph>
<glyph name="d" format="2">
  <advance width="619"/>
  <unicode hex="0064"/>
  <anchor x="310" y="0" name="bottom"/>
  <anchor x="464" y="594" name="center"/>
  <anchor x="310" y="510" name="top"/>
  <anchor x="519" y="743" name="topright"/>
  <outline>
    <contour>
      <point x="241" y="-8" type="curve" smooth="yes"/>
      <point x="331" y="-8"/>
      <point x="381" y="13"/>
      <point x="404" y="62" type="curve"/>
      <point x="408" y="62" type="line"/>
      <point x="418" y="0" type="line"/>
      <point x="519" y="0" type="line"/>
      <point x="519" y="743" type="line"/>
      <point x="408" y="743" type="line"/>
      <point x="408" y="448" type="line"/>
      <point x="404" y="448" type="line"/>
      <point x="381" y="497"/>
      <point x="331" y="518"/>
      <point x="241" y="518" type="curve" smooth="yes"/>
      <point x="93" y="518"/>
      <point x="62" y="473"/>
      <point x="62" y="259" type="curve" smooth="yes"/>
      <point x="62" y="251" type="line" smooth="yes"/>
      <point x="62" y="37"/>
      <point x="93" y="-8"/>
    </contour>
    <contour>
      <point x="276" y="84" type="curve" smooth="yes"/>
      <point x="187" y="84"/>
      <point x="173" y="101"/>
      <point x="173" y="217" type="curve" smooth="yes"/>
      <point x="173" y="293" type="line" smooth="yes"/>
      <point x="173" y="409"/>
      <point x="187" y="426"/>
      <point x="276" y="426" type="curve" smooth="yes"/>
      <point x="385" y="426"/>
      <point x="408" y="397"/>
      <point x="408" y="265" type="curve" smooth="yes"/>
      <point x="408" y="245" type="line" smooth="yes"/>
      <point x="408" y="113"/>
      <point x="385" y="84"/>
    </contour>
  </outline>
</glyph>
<glyph name="e" format="2">
  <advance width="566"/>
  <unicode hex="0065"/>
  <anchor x="291" y="0" name="bottom"/>
  <anchor x="491" y="10" name="ogonek"/>
  <anchor x="291" y="510" name="top"/>
  <outline>
    <contour>
      <point x="296" y="-8" type="curve" smooth="yes"/>
      <point x="370" y="-8"/>
      <point x="459" y="0"/>
      <point x="506" y="11" type="curve"/>
      <point x="506" y="97" type="line"/>
      <point x="456" y="87"/>
      <point x="376" y="80"/>
      <point x="315" y="80" type="curve" smooth="yes"/>
      <point x="191" y="80"/>
      <point x="182" y="91"/>
      <point x="182" y="233" type="curve" smooth="yes"/>
      <point x="182" y="277" type="line" smooth="yes"/>
      <point x="182" y="419"/>
      <point x="189" y="430"/>
      <point x="296" y="430" type="curve" smooth="yes"/>
      <point x="399" y="430"/>
      <point x="407" y="419"/>
      <point x="407" y="277" type="curve" smooth="yes"/>
      <point x="407" y="252" type="line"/>
      <point x="456" y="293" type="line"/>
      <point x="140" y="293" type="line"/>
      <point x="140" y="209" type="line"/>
      <point x="515" y="209" type="line"/>
      <point x="515" y="259" type="line" smooth="yes"/>
      <point x="515" y="474"/>
      <point x="477" y="518"/>
      <point x="296" y="518" type="curve" smooth="yes"/>
      <point x="110" y="518"/>
      <point x="70" y="474"/>
      <point x="70" y="259" type="curve" smooth="yes"/>
      <point x="70" y="251" type="line" smooth="yes"/>
      <point x="70" y="33"/>
      <point x="106" y="-8"/>
    </contour>
  </outline>
</glyph>
<glyph name="f" format="2">
  <advance width="363"/>
  <unicode hex="0066"/>
  <anchor x="190" y="0" name="bottom"/>
  <anchor x="190" y="743" name="top"/>
  <outline>
    <contour>
      <point x="118" y="0" type="line"/>
      <point x="230" y="0" type="line"/>
      <point x="230" y="572" type="line" smooth="yes"/>
      <point x="230" y="638"/>
      <point x="250" y="651"/>
      <point x="359" y="651" type="curve"/>
      <point x="359" y="743" type="line"/>
      <point x="171" y="743"/>
      <point x="118" y="704"/>
      <point x="118" y="565" type="curve" smooth="yes"/>
    </contour>
    <contour>
      <point x="17" y="418" type="line"/>
      <point x="150" y="418" type="line"/>
      <point x="150" y="510" type="line"/>
      <point x="17" y="510" type="line"/>
    </contour>
    <contour>
      <point x="199" y="418" type="line"/>
      <point x="359" y="418" type="line"/>
      <point x="359" y="510" type="line"/>
      <point x="199" y="510" type="line"/>
    </contour>
  </outline>
</glyph>
<glyph name="g" format="2">
  <advance width="613"/>
  <unicode hex="0067"/>
  <anchor x="274" y="-200" name="bottom"/>
  <anchor x="443" y="-84" name="center"/>
  <anchor x="274" y="510" name="top"/>
  <outline>
    <contour>
      <point x="294" y="-214" type="curve" smooth="yes"/>
      <point x="491" y="-214"/>
      <point x="528" y="-173"/>
      <point x="528" y="32" type="curve" smooth="yes"/>
      <point x="528" y="510" type="line"/>
      <point x="426" y="510" type="line"/>
      <point x="416" y="448" type="line"/>
      <point x="412" y="448" type="line"/>
      <point x="390" y="496"/>
      <point x="340" y="518"/>
      <point x="249" y="518" type="curve" smooth="yes"/>
      <point x="102" y="518"/>
      <point x="70" y="472"/>
      <point x="70" y="259" type="curve" smooth="yes"/>
      <point x="70" y="251" type="line" smooth="yes"/>
      <point x="70" y="36"/>
      <point x="101" y="-8"/>
      <point x="249" y="-8" type="curve" smooth="yes"/>
      <point x="339" y="-8"/>
      <point x="390" y="14"/>
      <point x="412" y="62" type="curve"/>
      <point x="416" y="62" type="line"/>
      <point x="416" y="13" type="line" smooth="yes"/>
      <point x="416" y="-117"/>
      <point x="408" y="-126"/>
      <point x="294" y="-126" type="curve" smooth="yes"/>
      <point x="223" y="-126"/>
      <point x="165" y="-122"/>
      <point x="111" y="-114" type="curve"/>
      <point x="111" y="-200" type="line"/>
      <point x="175" y="-209"/>
      <point x="234" y="-214"/>
    </contour>
    <contour>
      <point x="284" y="84" type="curve" smooth="yes"/>
      <point x="196" y="84"/>
      <point x="182" y="101"/>
      <point x="182" y="217" type="curve" smooth="yes"/>
      <point x="182" y="293" type="line" smooth="yes"/>
      <point x="182" y="409"/>
      <point x="196" y="426"/>
      <point x="284" y="426" type="curve" smooth="yes"/>
      <point x="393" y="426"/>
      <point x="416" y="397"/>
      <point x="416" y="265" type="curve" smooth="yes"/>
      <point x="416" y="245" type="line" smooth="yes"/>
      <point x="416" y="113"/>
      <point x="393" y="84"/>
    </contour>
  </outline>
</glyph>
<glyph name="h" format="2">
  <advance width="623"/>
  <unicode hex="0068"/>
  <anchor x="306" y="0" name="bottom"/>
  <anchor x="306" y="510" name="top"/>
  <outline>
    <contour>
      <point x="90" y="0" type="line"/>
      <point x="201" y="0" type="line"/>
      <point x="201" y="262" type="line" smooth="yes"/>
      <point x="201" y="397"/>
      <point x="223" y="426"/>
      <point x="326" y="426" type="curve" smooth="yes"/>
      <point x="405" y="426"/>
      <point x="419" y="406"/>
      <point x="419" y="294" type="curve" smooth="yes"/>
      <point x="419" y="0" type="line"/>
      <point x="530" y="0" type="line"/>
      <point x="530" y="310" type="line" smooth="yes"/>
      <point x="530" y="462"/>
      <point x="487" y="518"/>
      <point x="366" y="518" type="curve" smooth="yes"/>
      <point x="275" y="518"/>
      <point x="224" y="494"/>
      <point x="201" y="442" type="curve"/>
      <point x="201" y="743" type="line"/>
      <point x="90" y="743" type="line"/>
    </contour>
  </outline>
</glyph>
<glyph name="i" format="2">
  <advance width="282"/>
  <unicode hex="0069"/>
  <anchor x="133" y="0" name="bottom"/>
  <anchor x="196" y="0" name="ogonek"/>
  <anchor x="140.2" y="738.4" name="top"/>
  <outline>
    <contour>
      <point x="85" y="0" type="line"/>
      <point x="197" y="0" type="line"/>
      <point x="197" y="510" type="line"/>
      <point x="85" y="510" type="line"/>
    </contour>
    <contour>
      <point x="81" y="620" type="line"/>
      <point x="199" y="620" type="line"/>
      <point x="199" y="730" type="line"/>
      <point x="81" y="730" type="line"/>
    </contour>
  </outline>
</glyph>
<glyph name="j" format="2">
  <advance width="282"/>
  <unicode hex="006A"/>
  <anchor x="135" y="-200" name="bottom"/>
  <anchor x="135.2" y="738.4" name="top"/>
  <outline>
    <contour>
      <point x="190.8" y="510" type="line"/>
      <point x="79.2" y="510" type="line"/>
      <point x="79.2" y="-29" type="line" smooth="yes"/>
      <point x="79.2" y="-95.4"/>
      <point x="59.08" y="-108"/>
      <point x="-50.4" y="-108" type="curve"/>
      <point x="-50.4" y="-200" type="line"/>
      <point x="137.72" y="-200"/>
      <point x="190.8" y="-161.4"/>
      <point x="190.8" y="-22" type="curve" smooth="yes"/>
    </contour>
    <contour>
      <point x="76" y="620" type="line"/>
      <point x="194" y="620" type="line"/>
      <point x="194" y="730" type="line"/>
      <point x="76" y="730" type="line"/>
    </contour>
  </outline>
</glyph>
<glyph name="k" format="2">
  <advance width="566"/>
  <unicode hex="006B"/>
  <anchor x="351" y="0" name="bottom"/>
  <anchor x="351" y="510" name="top"/>
  <outline>
    <contour>
      <point x="196" y="214" type="line"/>
      <point x="305" y="214" type="line"/>
      <point x="426" y="0" type="line"/>
      <point x="553" y="0" type="line"/>
      <point x="404" y="260" type="line"/>
      <point x="549" y="510" type="line"/>
      <point x="422" y="510" type="line"/>
      <point x="305" y="306" type="line"/>
      <point x="196" y="306" type="line"/>
    </contour>
    <contour>
      <point x="85" y="0" type="line"/>
      <point x="196" y="0" type="line"/>
      <point x="196" y="743" type="line"/>
      <point x="85" y="743" type="line"/>
    </contour>
  </outline>
</glyph>
<glyph name="l" format="2">
  <advance width="282"/>
  <unicode hex="006C"/>
  <anchor x="142" y="0" name="bottom"/>
  <anchor x="142" y="372" name="center"/>
  <anchor x="142" y="743" name="top"/>
  <anchor x="198" y="743" name="topright"/>
  <outline>
    <contour>
      <point x="90" y="0" type="line"/>
      <point x="202" y="0" type="line"/>
      <point x="202" y="743" type="line"/>
      <point x="90" y="743" type="line"/>
    </contour>
  </outline>
</glyph>
<glyph name="m" format="2">
  <advance width="952"/>
  <unicode hex="006D"/>
  <anchor x="316" y="0" name="bottom"/>
  <anchor x="316" y="510" name="top"/>
  <outline>
    <contour>
      <point x="100" y="0" type="line"/>
      <point x="211" y="0" type="line"/>
      <point x="211" y="260" type="line" smooth="yes"/>
      <point x="211" y="396"/>
      <point x="234" y="426"/>
      <point x="336" y="426" type="curve" smooth="yes"/>
      <point x="414" y="426"/>
      <point x="429" y="406"/>
      <point x="429" y="294" type="curve" smooth="yes"/>
      <point x="429" y="0" type="line"/>
      <point x="540" y="0" type="line"/>
      <point x="540" y="260" type="line" smooth="yes"/>
      <point x="540" y="396"/>
      <point x="563" y="426"/>
      <point x="665" y="426" type="curve" smooth="yes"/>
      <point x="743" y="426"/>
      <point x="758" y="406"/>
      <point x="758" y="294" type="curve" smooth="yes"/>
      <point x="758" y="0" type="line"/>
      <point x="869" y="0" type="line"/>
      <point x="869" y="311" type="line" smooth="yes"/>
      <point x="869" y="475"/>
      <point x="834" y="518"/>
      <point x="705" y="518" type="curve" smooth="yes"/>
      <point x="611" y="518"/>
      <point x="558" y="495"/>
      <point x="529" y="445" type="curve"/>
      <point x="525" y="445" type="line"/>
      <point x="504" y="500"/>
      <point x="459" y="518"/>
      <point x="376" y="518" type="curve" smooth="yes"/>
      <point x="286" y="518"/>
      <point x="235" y="495"/>
      <point x="212" y="445" type="curve"/>
      <point x="208" y="445" type="line"/>
      <point x="199" y="510" type="line"/>
      <point x="100" y="510" type="line"/>
    </contour>
  </outline>
</glyph>
<glyph name="n" format="2">
  <advance width="623"/>
  <unicode hex="006E"/>
  <anchor x="306" y="0" name="bottom"/>
  <anchor x="306" y="510" name="top"/>
  <outline>
    <contour>
      <point x="90" y="0" type="line"/>
      <point x="201" y="0" type="line"/>
      <point x="201" y="262" type="line" smooth="yes"/>
      <point x="201" y="397"/>
      <point x="223" y="426"/>
      <point x="326" y="426" type="curve" smooth="yes"/>
      <point x="405" y="426"/>
      <point x="419" y="406"/>
      <point x="419" y="294" type="curve" smooth="yes"/>
      <point x="419" y="0" type="line"/>
      <point x="530" y="0" type="line"/>
      <point x="530" y="310" type="line" smooth="yes"/>
      <point x="530" y="462"/>
      <point x="487" y="518"/>
      <point x="366" y="518" type="curve" smooth="yes"/>
      <point x="275" y="518"/>
      <point x="225" y="495"/>
      <point x="202" y="442" type="curve"/>
      <point x="198" y="442" type="line"/>
      <point x="189" y="510" type="line"/>
      <point x="90" y="510" type="line"/>
    </contour>
  </outline>
</glyph>
<glyph name="p" format="2">
  <advance width="619"/>
  <unicode hex="0070"/>
  <anchor x="295" y="0" name="bottom"/>
  <anchor x="174" y="-84" name="center"/>
  <anchor x="295" y="510" name="top"/>
  <outline>
    <contour>
      <point x="90" y="-233" type="line"/>
      <point x="201" y="-233" type="line"/>
      <point x="201" y="62" type="line"/>
      <point x="205" y="62" type="line"/>
      <point x="228" y="13"/>
      <point x="278" y="-8"/>
      <point x="368" y="-8" type="curve" smooth="yes"/>
      <point x="517" y="-8"/>
      <point x="547" y="36"/>
      <point x="547" y="251" type="curve" smooth="yes"/>
      <point x="547" y="259" type="line" smooth="yes"/>
      <point x="547" y="474"/>
      <point x="517" y="518"/>
      <point x="368" y="518" type="curve" smooth="yes"/>
      <point x="278" y="518"/>
      <point x="228" y="497"/>
      <point x="205" y="448" type="curve"/>
      <point x="201" y="448" type="line"/>
      <point x="191" y="510" type="line"/>
      <point x="90" y="510" type="line"/>
    </contour>
    <contour>
      <point x="333" y="84" type="curve" smooth="yes"/>
      <point x="224" y="84"/>
      <point x="201" y="113"/>
      <point x="201" y="245" type="curve" smooth="yes"/>
      <point x="201" y="265" type="line" smooth="yes"/>
      <point x="201" y="397"/>
      <point x="224" y="426"/>
      <point x="333" y="426" type="curve" smooth="yes"/>
      <point x="422" y="426"/>
      <point x="436" y="409"/>
      <point x="436" y="293" type="curve" smooth="yes"/>
      <point x="436" y="217" type="line" smooth="yes"/>
      <point x="436" y="101"/>
      <point x="422" y="84"/>
    </contour>
  </outline>
</glyph>
<glyph name="q" format="2">
  <advance width="619"/>
  <unicode hex="0071"/>
  <anchor x="310" y="0" name="bottom"/>
  <anchor x="430" y="-84" name="center"/>
  <anchor x="310" y="510" name="top"/>
  <outline>
    <contour>
      <point x="403" y="-233" type="line"/>
      <point x="515" y="-233" type="line"/>
      <point x="515" y="510" type="line"/>
      <point x="413" y="510" type="line"/>
      <point x="403" y="448" type="line"/>
      <point x="399" y="448" type="line"/>
      <point x="377" y="496"/>
      <point x="326" y="518"/>
      <point x="236" y="518" type="curve" smooth="yes"/>
      <point x="88" y="518"/>
      <point x="57" y="474"/>
      <point x="57" y="259" type="curve" smooth="yes"/>
      <point x="57" y="251" type="line" smooth="yes"/>
      <point x="57" y="36"/>
      <point x="88" y="-8"/>
      <point x="236" y="-8" type="curve" smooth="yes"/>
      <point x="326" y="-8"/>
      <point x="377" y="14"/>
      <point x="399" y="62" type="curve"/>
      <point x="403" y="62" type="line"/>
    </contour>
    <contour>
      <point x="271" y="84" type="curve" smooth="yes"/>
      <point x="183" y="84"/>
      <point x="169" y="101"/>
      <point x="169" y="217" type="curve" smooth="yes"/>
      <point x="169" y="293" type="line" smooth="yes"/>
      <point x="169" y="409"/>
      <point x="183" y="426"/>
      <point x="271" y="426" type="curve" smooth="yes"/>
      <point x="381" y="426"/>
      <point x="403" y="397"/>
      <point x="403" y="265" type="curve" smooth="yes"/>
      <point x="403" y="245" type="line" smooth="yes"/>
      <point x="403" y="113"/>
      <point x="381" y="84"/>
    </contour>
  </outline>
</glyph>
<glyph name="r" format="2">
  <advance width="400"/>
  <unicode hex="0072"/>
  <anchor x="205" y="0" name="bottom"/>
  <anchor x="205" y="510" name="top"/>
  <outline>
    <contour>
      <point x="90" y="0" type="line"/>
      <point x="201" y="0" type="line"/>
      <point x="201" y="263" type="line" smooth="yes"/>
      <point x="201" y="394"/>
      <point x="227" y="426"/>
      <point x="341" y="426" type="curve" smooth="yes"/>
      <point x="374" y="426" type="line"/>
      <point x="374" y="518" type="line"/>
      <point x="279" y="518"/>
      <point x="227" y="496"/>
      <point x="202" y="445" type="curve"/>
      <point x="198" y="445" type="line"/>
      <point x="189" y="510" type="line"/>
      <point x="90" y="510" type="line"/>
    </contour>
  </outline>
</glyph>
<glyph name="s" format="2">
  <advance width="505"/>
  <unicode hex="0073"/>
  <anchor x="252" y="0" name="bottom"/>
  <anchor x="252" y="510" name="top"/>
  <outline>
    <contour>
      <point x="233" y="-8" type="curve" smooth="yes"/>
      <point x="398" y="-8"/>
      <point x="446" y="28"/>
      <point x="446" y="149" type="curve" smooth="yes"/>
      <point x="446" y="243"/>
      <point x="419" y="279"/>
      <point x="338" y="290" type="curve" smooth="yes"/>
      <point x="217" y="305" type="line" smooth="yes"/>
      <point x="179" y="310"/>
      <point x="171" y="320"/>
      <point x="171" y="363" type="curve" smooth="yes"/>
      <point x="171" y="418"/>
      <point x="187" y="430"/>
      <point x="266" y="430" type="curve" smooth="yes"/>
      <point x="320" y="430"/>
      <point x="385" y="425"/>
      <point x="424" y="418" type="curve"/>
      <point x="424" y="505" type="line"/>
      <point x="378" y="513"/>
      <point x="316" y="518"/>
      <point x="266" y="518" type="curve" smooth="yes"/>
      <point x="106" y="518"/>
      <point x="59" y="482"/>
      <point x="59" y="364" type="curve" smooth="yes"/>
      <point x="59" y="274"/>
      <point x="89" y="235"/>
      <point x="166" y="225" type="curve" smooth="yes"/>
      <point x="287" y="210" type="line" smooth="yes"/>
      <point x="329" y="204"/>
      <point x="335" y="196"/>
      <point x="335" y="150" type="curve" smooth="yes"/>
      <point x="335" y="92"/>
      <point x="318" y="80"/>
      <point x="235" y="80" type="curve" smooth="yes"/>
      <point x="178" y="80"/>
      <point x="112" y="84"/>
      <point x="64" y="92" type="curve"/>
      <point x="64" y="5" type="line"/>
      <point x="110" y="-3"/>
      <point x="175" y="-8"/>
    </contour>
  </outline>
</glyph>
<glyph name="t" format="2">
  <advance width="365"/>
  <unicode hex="0074"/>
  <anchor x="191" y="0" name="bottom"/>
  <anchor x="191" y="743" name="top"/>
  <outline>
    <contour>
      <point x="119" y="0" type="line"/>
      <point x="231" y="0" type="line"/>
      <point x="231" y="688" type="line"/>
      <point x="119" y="688" type="line"/>
    </contour>
    <contour>
      <point x="18" y="418" type="line"/>
      <point x="151" y="418" type="line"/>
      <point x="151" y="510" type="line"/>
      <point x="18" y="510" type="line"/>
    </contour>
    <contour>
      <point x="200" y="418" type="line"/>
      <point x="360" y="418" type="line"/>
      <point x="360" y="510" type="line"/>
      <point x="200" y="510" type="line"/>
    </contour>
  </outline>
</glyph>
<glyph name="u" format="2">
  <advance width="623"/>
  <unicode hex="0075"/>
  <anchor x="300" y="0" name="bottom"/>
  <anchor x="540" y="10" name="ogonek"/>
  <anchor x="300" y="510" name="top"/>
  <anchor x="580" y="510" name="topright"/>
  <outline>
    <contour>
      <point x="518" y="510" type="line"/>
      <point x="407" y="510" type="line"/>
      <point x="407" y="248" type="line" smooth="yes"/>
      <point x="407" y="113"/>
      <point x="385" y="84"/>
      <point x="282" y="84" type="curve" smooth="yes"/>
      <point x="203" y="84"/>
      <point x="189" y="104"/>
      <point x="189" y="216" type="curve" smooth="yes"/>
      <point x="189" y="510" type="line"/>
      <point x="77" y="510" type="line"/>
      <point x="77" y="200" type="line" smooth="yes"/>
      <point x="77" y="48"/>
      <point x="121" y="-8"/>
      <point x="242" y="-8" type="curve" smooth="yes"/>
      <point x="333" y="-8"/>
      <point x="383" y="15"/>
      <point x="406" y="68" type="curve"/>
      <point x="410" y="68" type="line"/>
      <point x="419" y="0" type="line"/>
      <point x="518" y="0" type="line"/>
    </contour>
  </outline>
</glyph>
<glyph name="v" format="2">
  <advance width="522"/>
  <unicode hex="0076"/>
  <anchor x="297" y="0" name="bottom"/>
  <anchor x="297" y="510" name="top"/>
  <outline>
    <contour>
      <point x="188" y="0" type="line"/>
      <point x="334" y="0" type="line"/>
      <point x="499" y="510" type="line"/>
      <point x="385" y="510" type="line"/>
      <point x="263" y="96" type="line"/>
      <point x="259" y="96" type="line"/>
      <point x="136" y="510" type="line"/>
      <point x="23" y="510" type="line"/>
    </contour>
  </outline>
</glyph>
<glyph name="w" format="2">
  <advance width="676"/>
  <unicode hex="0077"/>
  <anchor x="227" y="0" name="bottom"/>
  <anchor x="227" y="510" name="top"/>
  <outline>
    <contour>
      <point x="108" y="0" type="line"/>
      <point x="265" y="0" type="line"/>
      <point x="338" y="399" type="line"/>
      <point x="411" y="0" type="line"/>
      <point x="567" y="0" type="line"/>
      <point x="653" y="510" type="line"/>
      <point x="544" y="510" type="line"/>
      <point x="486" y="110" type="line"/>
      <point x="482" y="110" type="line"/>
      <point x="410" y="510" type="line"/>
      <point x="265" y="510" type="line"/>
      <point x="193" y="110" type="line"/>
      <point x="189" y="110" type="line"/>
      <point x="132" y="510" type="line"/>
      <point x="23" y="510" type="line"/>
    </contour>
  </outline>
</glyph>
<glyph name="x" format="2">
  <advance width="485"/>
  <unicode hex="0078"/>
  <anchor x="253" y="0" name="bottom"/>
  <anchor x="253" y="510" name="top"/>
  <outline>
    <contour>
      <point x="338" y="0" type="line"/>
      <point x="467" y="0" type="line"/>
      <point x="147" y="510" type="line"/>
      <point x="18" y="510" type="line"/>
    </contour>
    <contour>
      <point x="18" y="0" type="line"/>
      <point x="147" y="0" type="line"/>
      <point x="467" y="510" type="line"/>
      <point x="338" y="510" type="line"/>
    </contour>
  </outline>
</glyph>
<glyph name="y" format="2">
  <advance width="623"/>
  <unicode hex="0079"/>
  <anchor x="298" y="0" name="bottom"/>
  <anchor x="298" y="510" name="top"/>
  <outline>
    <contour>
      <point x="306" y="-214" type="curve" smooth="yes"/>
      <point x="485" y="-214"/>
      <point x="518" y="-169"/>
      <point x="518" y="53" type="curve" smooth="yes"/>
      <point x="518" y="510" type="line"/>
      <point x="407" y="510" type="line"/>
      <point x="407" y="245" type="line" smooth="yes"/>
      <point x="407" y="113"/>
      <point x="393" y="84"/>
      <point x="283" y="84" type="curve" smooth="yes"/>
      <point x="197" y="84"/>
      <point x="189" y="103"/>
      <point x="189" y="210" type="curve" smooth="yes"/>
      <point x="189" y="510" type="line"/>
      <point x="77" y="510" type="line"/>
      <point x="77" y="251" type="line" smooth="yes"/>
      <point x="77" y="35"/>
      <point x="99" y="-8"/>
      <point x="248" y="-8" type="curve" smooth="yes"/>
      <point x="337" y="-8"/>
      <point x="380" y="14"/>
      <point x="402" y="62" type="curve"/>
      <point x="407" y="62" type="line"/>
      <point x="407" y="26" type="line" smooth="yes"/>
      <point x="407" y="-111"/>
      <point x="401" y="-122"/>
      <point x="283" y="-122" type="curve" smooth="yes"/>
      <point x="224" y="-122"/>
      <point x="155" y="-116"/>
      <point x="108" y="-106" type="curve"/>
      <point x="108" y="-196" type="line"/>
      <point x="154" y="-207"/>
      <point x="233" y="-214"/>
    </contour>
  </outline>
</glyph>
<glyph name="z" format="2">
  <advance width="459"/>
  <unicode hex="007A"/>
  <anchor x="246" y="0" name="bottom"/>
  <anchor x="240" y="255" name="center"/>
  <anchor x="246" y="510" name="top"/>
  <outline>
    <contour>
      <point x="23" y="0" type="line"/>
      <point x="436" y="0" type="line"/>
      <point x="436" y="92" type="line"/>
      <point x="174" y="92" type="line"/>
      <point x="174" y="96" type="line"/>
      <point x="434" y="427" type="line"/>
      <point x="434" y="510" type="line"/>
      <point x="35" y="510" type="line"/>
      <point x="35" y="418" type="line"/>
      <point x="282" y="418" type="line"/>
      <point x="282" y="414" type="line"/>
      <point x="23" y="83" type="line"/>
    </contour>
  </outline>
</glyph>
<glyph name="bar" format="2">
  <advance width="362"/>
  <unicode hex="007C"/>
  <outline>
    <contour>
      <point x="114.16" y="-161" type="line"/>
      <point x="225.76" y="-161" type="line"/>
      <point x="225.76" y="743" type="line"/>
      <point x="114.16" y="743" type="line"/>
    </contour>
  </outline>
</glyph>
<glyph name="idotless" format="2">
  <advance width="282"/>
  <unicode hex="0131"/>
  <anchor x="140" y="0" name="bottom"/>
  <anchor x="196" y="0" name="ogonek"/>
  <anchor x="140" y="510" name="top"/>
  <outline>
    <contour>
      <point x="85" y="0" type="line"/>
      <point x="197" y="0" type="line"/>
      <point x="197" y="510" type="line"/>
      <point x="85" y="510" type="line"/>
    </contour>
  </outline>
</glyph>
<glyph name="jdotless" format="2">
  <advance width="270"/>
  <unicode hex="0237"/>
  <anchor x="135" y="-200" name="bottom"/>
  <anchor x="135" y="510" name="top"/>
  <outline>
    <contour>
      <point x="190.8" y="510" type="line"/>
      <point x="79.2" y="510" type="line"/>
      <point x="79.2" y="-29" type="line" smooth="yes"/>
      <point x="79.2" y="-95.4"/>
      <point x="59.08" y="-108"/>
      <point x="-50.4" y="-108" type="curve"/>
      <point x="-50.4" y="-200" type="line"/>
      <point x="137.72" y="-200"/>
      <point x="190.8" y="-161.4"/>
      <point x="190.8" y="-22" type="curve" smooth="yes"/>
    </contour>
  </outline>
</glyph>
<glyph name="dotaccentcomb" format="2">
  <advance width="158.4"/>
  <unicode hex="0307"/>
  <anchor x="79.2" y="510" name="_top"/>
  <anchor x="79.2" y="738.4" name="top"/>
  <outline>
    <contour>
      <point x="20" y="620" type="line"/>
      <point x="138.4" y="620" type="line"/>
      <point x="138.4" y="730.4" type="line"/>
      <point x="20" y="730.4" type="line"/>
    </contour>
  </outline>
</glyph>
<glyph name="C.001" format="2">
  <advance width="553.24"/>
  <anchor x="263.88" y="0" name="bottom"/>
  <anchor x="263.88" y="688" name="top"/>
  <outline>
    <contour>
      <point x="337.84" y="-8" type="curve" smooth="yes"/>
      <point x="386.88" y="-8"/>
      <point x="444.72" y="-3.48"/>
      <point x="477.92" y="3.8" type="curve"/>
      <point x="477.92" y="95.48" type="line"/>
      <point x="445.24" y="90.56"/>
      <point x="389.92" y="87.2"/>
      <point x="337.84" y="87.2" type="curve" smooth="yes"/>
      <point x="182.2" y="87.2"/>
      <point x="171.36" y="102.76"/>
      <point x="171.36" y="310" type="curve" smooth="yes"/>
      <point x="171.36" y="378" type="line" smooth="yes"/>
      <point x="171.36" y="585.24"/>
      <point x="182.2" y="600.8"/>
      <point x="337.84" y="600.8" type="curve" smooth="yes"/>
      <point x="385.72" y="600.8"/>
      <point x="434.52" y="597.68"/>
      <point x="474.4" y="592.52" type="curve"/>
      <point x="474.4" y="682.2" type="line"/>
      <point x="441.96" y="690.48"/>
      <point x="385.12" y="696"/>
      <point x="337.84" y="696" type="curve" smooth="yes"/>
      <point x="100.64" y="696"/>
      <point x="59.76" y="643.52"/>
      <point x="59.76" y="349" type="curve" smooth="yes"/>
      <point x="59.76" y="339" type="line" smooth="yes"/>
      <point x="59.76" y="44.48"/>
      <point x="100.64" y="-8"/>
    </contour>
  </outline>
</glyph>
<glyph name="M.001" format="2">
  <advance width="773.04"/>
  <anchor x="386.52" y="0" name="bottom"/>
  <anchor x="386.52" y="688" name="top"/>
  <outline>
    <contour>
      <point x="79.2" y="0" type="line"/>
      <point x="190.8" y="0" type="line"/>
      <point x="190.8" y="532" type="line"/>
      <point x="194.8" y="532" type="line"/>
      <point x="336.72" y="0" type="line"/>
      <point x="436.08" y="0" type="line"/>
      <point x="578.24" y="532" type="line"/>
      <point x="582.24" y="532" type="line"/>
      <point x="582.24" y="0" type="line"/>
      <point x="693.84" y="0" type="line"/>
      <point x="693.84" y="688" type="line"/>
      <point x="522.36" y="688" type="line"/>
      <point x="388.72" y="180" type="line"/>
      <point x="384.32" y="180" type="line"/>
      <point x="250.68" y="688" type="line"/>
      <point x="79.2" y="688" type="line"/>
    </contour>
  </outline>
</glyph>
<glyph name="X.001" format="2">
  <advance width="674.54348"/>
  <anchor x="337.543" y="0" name="bottom"/>
  <anchor x="337.543" y="688" name="top"/>
  <outline>
    <contour>
      <point x="29.083" y="0" type="line"/>
      <point x="127.306" y="0" type="line"/>
      <point x="331.944" y="276.028" type="line"/>
      <point x="339.944" y="276.028" type="line"/>
      <point x="543.93" y="0" type="line"/>
      <point x="645.264" y="0" type="line"/>
      <point x="389.986" y="347.708" type="line"/>
      <point x="642.264" y="688" type="line"/>
      <point x="543.694" y="688" type="line"/>
      <point x="342.763" y="417.791" type="line"/>
      <point x="335.056" y="417.791" type="line"/>
      <point x="134.777" y="688" type="line"/>
      <point x="33.083" y="688" type="line"/>
      <point x="285.07" y="345.292" type="line"/>
    </contour>
  </outline>
</glyph>
<glyph name="Y.001" format="2">
  <advance width="534.96"/>
  <anchor x="306.84" y="0" name="bottom"/>
  <anchor x="306.84" y="688" name="top"/>
  <anchor x="48.88" y="688" name="topleft"/>
  <outline>
    <contour>
      <point x="211.88" y="0" type="line"/>
      <point x="323.48" y="0" type="line"/>
      <point x="323.48" y="319.96" type="line"/>
      <point x="299.6" y="214.64" type="line"/>
      <point x="526.96" y="688" type="line"/>
      <point x="404.28" y="688" type="line"/>
      <point x="269.68" y="377.32" type="line"/>
      <point x="265.68" y="377.32" type="line"/>
      <point x="131.08" y="688" type="line"/>
      <point x="8" y="688" type="line"/>
      <point x="235.56" y="214.04" type="line"/>
      <point x="211.88" y="319.96" type="line"/>
    </contour>
  </outline>
</glyph>
<glyph name="Z.001" format="2">
  <advance width="571.64"/>
  <anchor x="265.72" y="0" name="bottom"/>
  <anchor x="265.72" y="344" name="center"/>
  <anchor x="265.72" y="688" name="top"/>
  <outline>
    <contour>
      <point x="44.4" y="0" type="line"/>
      <point x="527.24" y="0" type="line"/>
      <point x="527.24" y="95.2" type="line"/>
      <point x="186.8" y="95.2" type="line"/>
      <point x="522.64" y="602.92" type="line"/>
      <point x="522.64" y="688" type="line"/>
      <point x="54.12" y="688" type="line"/>
      <point x="54.12" y="592.8" type="line"/>
      <point x="380.6" y="592.8" type="line"/>
      <point x="44.4" y="85.08" type="line"/>
    </contour>
  </outline>
</glyph>
<glyph name="_tail.Q" format="2">
  <advance width="176.8"/>
  <anchor x="75.2" y="10" name="_bottom"/>
  <outline>
    <contour>
      <point x="20" y="10" type="line"/>
      <point x="46.4" y="-146" type="line"/>
      <point x="156.8" y="-146" type="line"/>
      <point x="130.4" y="10" type="line"/>
    </contour>
  </outline>
</glyph>
<glyph name="a.001" format="2">
  <advance width="568.96"/>
  <anchor x="287.88" y="0" name="bottom"/>
  <anchor x="521.88" y="10" name="ogonek"/>
  <anchor x="287.88" y="510" name="top"/>
  <outline>
    <contour>
      <point x="222.84" y="-8" type="curve" smooth="yes"/>
      <point x="310.44" y="-8"/>
      <point x="359.32" y="15.48"/>
      <point x="381.56" y="67.52" type="curve"/>
      <point x="385.08" y="67.52" type="line"/>
      <point x="394.04" y="0" type="line"/>
      <point x="493.64" y="0" type="line"/>
      <point x="493.64" y="259" type="line" smooth="yes"/>
      <point x="493.64" y="477"/>
      <point x="459" y="518"/>
      <point x="272.88" y="518" type="curve" smooth="yes"/>
      <point x="206.08" y="518"/>
      <point x="132.12" y="511.8"/>
      <point x="73.48" y="501" type="curve"/>
      <point x="73.72" y="415" type="line"/>
      <point x="124.48" y="424.8"/>
      <point x="190.24" y="430"/>
      <point x="253.12" y="430" type="curve" smooth="yes"/>
      <point x="373.68" y="430"/>
      <point x="382.28" y="419.6"/>
      <point x="382.28" y="282.6" type="curve" smooth="yes"/>
      <point x="382.28" y="249.8" type="line" smooth="yes"/>
      <point x="382.28" y="117.4"/>
      <point x="358.6" y="84"/>
      <point x="255.8" y="84" type="curve" smooth="yes"/>
      <point x="177.64" y="84"/>
      <point x="161.48" y="97.8"/>
      <point x="161.48" y="156" type="curve" smooth="yes"/>
      <point x="161.48" y="213.8"/>
      <point x="179.88" y="227"/>
      <point x="256" y="227" type="curve" smooth="yes"/>
      <point x="429.4" y="227" type="line"/>
      <point x="429.4" y="311" type="line"/>
      <point x="242.2" y="311" type="line" smooth="yes"/>
      <point x="99.96" y="311"/>
      <point x="50.36" y="269.8"/>
      <point x="50.36" y="152" type="curve" smooth="yes"/>
      <point x="50.36" y="33.6"/>
      <point x="94.28" y="-8"/>
    </contour>
  </outline>
</glyph>
<glyph name="c.001" format="2">
  <advance width="440.16"/>
  <anchor x="218.88" y="0" name="bottom"/>
  <anchor x="218.88" y="510" name="top"/>
  <outline>
    <contour>
      <point x="273.4" y="-8" type="curve" smooth="yes"/>
      <point x="320.88" y="-8"/>
      <point x="374.56" y="-2.48"/>
      <point x="406.8" y="5.8" type="curve"/>
      <point x="406.8" y="95.8" type="line"/>
      <point x="374.84" y="88.72"/>
      <point x="322" y="84"/>
      <point x="280" y="84" type="curve" smooth="yes"/>
      <point x="175" y="84"/>
      <point x="167.2" y="95.04"/>
      <point x="167.2" y="233.6" type="curve" smooth="yes"/>
      <point x="167.2" y="276.4" type="line" smooth="yes"/>
      <point x="167.2" y="415.2"/>
      <point x="175" y="426"/>
      <point x="280" y="426" type="curve" smooth="yes"/>
      <point x="320" y="426"/>
      <point x="370.84" y="421.48"/>
      <point x="401.8" y="414.2" type="curve"/>
      <point x="401.8" y="504.2" type="line"/>
      <point x="370.56" y="512.48"/>
      <point x="318.68" y="518"/>
      <point x="273.4" y="518" type="curve" smooth="yes"/>
      <point x="88.52" y="518"/>
      <point x="55.6" y="479"/>
      <point x="55.6" y="259" type="curve" smooth="yes"/>
      <point x="55.6" y="251" type="line" smooth="yes"/>
      <point x="55.6" y="31"/>
      <point x="88.52" y="-8"/>
    </contour>
  </outline>
</glyph>
<glyph name="c.003" format="2">
  <advance width="457.2"/>
  <anchor x="219.56" y="0" name="bottom"/>
  <anchor x="219.56" y="510" name="top"/>
  <outline>
    <contour>
      <point x="284.08" y="-8" type="curve" smooth="yes"/>
      <point x="333.36" y="-8"/>
      <point x="389.24" y="-2.48"/>
      <point x="422.88" y="5.8" type="curve"/>
      <point x="422.88" y="95.8" type="line"/>
      <point x="389.32" y="88.72"/>
      <point x="332.88" y="84"/>
      <point x="288.48" y="84" type="curve" smooth="yes"/>
      <point x="177.28" y="84"/>
      <point x="168.88" y="95.04"/>
      <point x="168.88" y="233.6" type="curve" smooth="yes"/>
      <point x="168.88" y="276.4" type="line" smooth="yes"/>
      <point x="168.88" y="415.2"/>
      <point x="177.28" y="426"/>
      <point x="288.48" y="426" type="curve" smooth="yes"/>
      <point x="330.88" y="426"/>
      <point x="384.72" y="421.48"/>
      <point x="417.68" y="414.2" type="curve"/>
      <point x="417.68" y="504.2" type="line"/>
      <point x="385.24" y="512.48"/>
      <point x="331.36" y="518"/>
      <point x="284.08" y="518" type="curve" smooth="yes"/>
      <point x="91.6" y="518"/>
      <point x="57.28" y="479"/>
      <point x="57.28" y="259" type="curve" smooth="yes"/>
      <point x="57.28" y="251" type="line" smooth="yes"/>
      <point x="57.28" y="31"/>
      <point x="91.6" y="-8"/>
    </contour>
  </outline>
</glyph>
<glyph name="c.004" format="2">
  <advance width="449.2"/>
  <anchor x="219.56" y="0" name="bottom"/>
  <anchor x="219.56" y="510" name="top"/>
  <outline>
    <contour>
      <point x="280.08" y="-8" type="curve" smooth="yes"/>
      <point x="327.36" y="-8"/>
      <point x="382.04" y="-2.48"/>
      <point x="414.88" y="5.8" type="curve"/>
      <point x="414.88" y="95.8" type="line"/>
      <point x="382.52" y="88.72"/>
      <point x="327.68" y="84"/>
      <point x="284.48" y="84" type="curve" smooth="yes"/>
      <point x="176.88" y="84"/>
      <point x="168.88" y="95.04"/>
      <point x="168.88" y="233.6" type="curve" smooth="yes"/>
      <point x="168.88" y="276.4" type="line" smooth="yes"/>
      <point x="168.88" y="415.2"/>
      <point x="176.88" y="426"/>
      <point x="284.48" y="426" type="curve" smooth="yes"/>
      <point x="325.68" y="426"/>
      <point x="378.12" y="421.48"/>
      <point x="409.68" y="414.2" type="curve"/>
      <point x="409.68" y="504.2" type="line"/>
      <point x="378.04" y="512.48"/>
      <point x="325.96" y="518"/>
      <point x="280.08" y="518" type="curve" smooth="yes"/>
      <point x="90.8" y="518"/>
      <point x="57.28" y="479"/>
      <point x="57.28" y="259" type="curve" smooth="yes"/>
      <point x="57.28" y="251" type="line" smooth="yes"/>
      <point x="57.28" y="31"/>
      <point x="90.8" y="-8"/>
    </contour>
  </outline>
</glyph>
<glyph name="e.001" format="2">
  <advance width="566"/>
  <anchor x="279.48" y="0" name="bottom"/>
  <anchor x="479.56" y="10" name="ogonek"/>
  <anchor x="279.48" y="510" name="top"/>
  <outline>
    <contour>
      <point x="285" y="-8" type="curve" smooth="yes"/>
      <point x="359.2" y="-8"/>
      <point x="446.72" y="-0.48"/>
      <point x="494.48" y="10.8" type="curve"/>
      <point x="494.48" y="100.8" type="line"/>
      <point x="443.92" y="90.76"/>
      <point x="364.8" y="84"/>
      <point x="304.36" y="84" type="curve" smooth="yes"/>
      <point x="179.6" y="84"/>
      <point x="170.8" y="94.6"/>
      <point x="170.8" y="233" type="curve" smooth="yes"/>
      <point x="170.8" y="277" type="line" smooth="yes"/>
      <point x="170.8" y="415.4"/>
      <point x="178.36" y="426"/>
      <point x="285.24" y="426" type="curve" smooth="yes"/>
      <point x="388.08" y="426"/>
      <point x="395.64" y="415.16"/>
      <point x="395.64" y="277" type="curve" smooth="yes"/>
      <point x="395.64" y="252.16" type="line"/>
      <point x="445.4" y="297.6" type="line"/>
      <point x="129.28" y="297.6" type="line"/>
      <point x="129.28" y="203.6" type="line"/>
      <point x="505.8" y="203.6" type="line"/>
      <point x="505.8" y="259" type="line" smooth="yes"/>
      <point x="505.8" y="479"/>
      <point x="472.76" y="518"/>
      <point x="285" y="518" type="curve" smooth="yes"/>
      <point x="93.24" y="518"/>
      <point x="59.2" y="478.76"/>
      <point x="59.2" y="259" type="curve" smooth="yes"/>
      <point x="59.2" y="251" type="line" smooth="yes"/>
      <point x="59.2" y="31.24"/>
      <point x="93.24" y="-8"/>
    </contour>
  </outline>
</glyph>
<glyph name="n.001" format="2">
  <advance width="590.36"/>
  <anchor x="292.96" y="0" name="bottom"/>
  <anchor x="292.96" y="510" name="top"/>
  <outline>
    <contour>
      <point x="76.8" y="0" type="line"/>
      <point x="188.4" y="0" type="line"/>
      <point x="188.4" y="262.88" type="line" smooth="yes"/>
      <point x="188.4" y="391.84"/>
      <point x="211.12" y="422"/>
      <point x="310.88" y="422" type="curve" smooth="yes"/>
      <point x="391.4" y="422"/>
      <point x="405.84" y="403.72"/>
      <point x="405.84" y="289.68" type="curve" smooth="yes"/>
      <point x="405.84" y="0" type="line"/>
      <point x="517.44" y="0" type="line"/>
      <point x="517.44" y="329.32" type="line" smooth="yes"/>
      <point x="517.44" y="475.6"/>
      <point x="479.2" y="518"/>
      <point x="349.72" y="518" type="curve" smooth="yes"/>
      <point x="260.36" y="518"/>
      <point x="209.48" y="493"/>
      <point x="187" y="437" type="curve"/>
      <point x="183" y="437" type="line"/>
      <point x="174.48" y="510" type="line"/>
      <point x="76.8" y="510" type="line"/>
    </contour>
  </outline>
</glyph>
<glyph name="o.002" format="2">
  <advance width="588"/>
  <anchor x="282" y="0" name="bottom"/>
  <anchor x="282" y="255" name="center"/>
  <anchor x="495" y="10" name="ogonek"/>
  <anchor x="282" y="510" name="top"/>
  <anchor x="528" y="510" name="topright"/>
  <outline>
    <contour>
      <point x="291" y="-8" type="curve" smooth="yes"/>
      <point x="480" y="-8"/>
      <point x="519" y="36"/>
      <point x="519" y="251" type="curve" smooth="yes"/>
      <point x="519" y="259" type="line" smooth="yes"/>
      <point x="519" y="474"/>
      <point x="480" y="518"/>
      <point x="291" y="518" type="curve" smooth="yes"/>
      <point x="102" y="518"/>
      <point x="63" y="472"/>
      <point x="63" y="259" type="curve" smooth="yes"/>
      <point x="63" y="251" type="line" smooth="yes"/>
      <point x="63" y="36"/>
      <point x="103" y="-8"/>
    </contour>
    <contour>
      <point x="291" y="84" type="curve" smooth="yes"/>
      <point x="183" y="84"/>
      <point x="175" y="94"/>
      <point x="175" y="234" type="curve" smooth="yes"/>
      <point x="175" y="276" type="line" smooth="yes"/>
      <point x="175" y="416"/>
      <point x="183" y="426"/>
      <point x="291" y="426" type="curve" smooth="yes"/>
      <point x="399" y="426"/>
      <point x="407" y="416"/>
      <point x="407" y="276" type="curve" smooth="yes"/>
      <point x="407" y="234" type="line" smooth="yes"/>
      <point x="407" y="94"/>
      <point x="399" y="84"/>
    </contour>
  </outline>
</glyph>
<glyph name="s.001" format="2">
  <advance width="485.84"/>
  <anchor x="243.32" y="0" name="bottom"/>
  <anchor x="243.32" y="510" name="top"/>
  <outline>
    <contour>
      <point x="228.32" y="-8.2" type="curve" smooth="yes"/>
      <point x="388.32" y="-8.2"/>
      <point x="435.2" y="27.84"/>
      <point x="435.2" y="149.4" type="curve" smooth="yes"/>
      <point x="435.2" y="246.48"/>
      <point x="403" y="279.32"/>
      <point x="321.52" y="289.28" type="curve" smooth="yes"/>
      <point x="209.92" y="302.16" type="line" smooth="yes"/>
      <point x="171.88" y="307.2"/>
      <point x="162.24" y="316.64"/>
      <point x="162.24" y="360.24" type="curve" smooth="yes"/>
      <point x="162.24" y="415.16"/>
      <point x="177.6" y="426.4"/>
      <point x="253.4" y="426.4" type="curve" smooth="yes"/>
      <point x="306.76" y="426.4"/>
      <point x="372.72" y="421.28"/>
      <point x="414.76" y="413.6" type="curve"/>
      <point x="414.76" y="504.4" type="line"/>
      <point x="366.96" y="513.48"/>
      <point x="303.84" y="518.4"/>
      <point x="252.92" y="518.4" type="curve" smooth="yes"/>
      <point x="96.6" y="518.4"/>
      <point x="50.64" y="482.8"/>
      <point x="50.64" y="363.8" type="curve" smooth="yes"/>
      <point x="50.64" y="269"/>
      <point x="84.36" y="234.88"/>
      <point x="162.4" y="225.28" type="curve" smooth="yes"/>
      <point x="274" y="212.2" type="line" smooth="yes"/>
      <point x="314.84" y="206.8"/>
      <point x="323.6" y="197.88"/>
      <point x="323.6" y="152.6" type="curve" smooth="yes"/>
      <point x="323.6" y="95.84"/>
      <point x="307.2" y="83.8"/>
      <point x="228.08" y="83.8" type="curve" smooth="yes"/>
      <point x="170.92" y="83.8"/>
      <point x="100.4" y="88.92"/>
      <point x="55.36" y="96.6" type="curve"/>
      <point x="55.36" y="5.8" type="line"/>
      <point x="106.52" y="-3.28"/>
      <point x="174.56" y="-8.2"/>
    </contour>
  </outline>
</glyph>
<glyph name="s.002" format="2">
  <advance width="485.84"/>
  <anchor x="243.32" y="0" name="bottom"/>
  <anchor x="243.32" y="510" name="top"/>
  <outline>
    <contour>
      <point x="228.32" y="-8.2" type="curve" smooth="yes"/>
      <point x="388.32" y="-8.2"/>
      <point x="435.2" y="28.64"/>
      <point x="435.2" y="153" type="curve" smooth="yes"/>
      <point x="435.2" y="252.28"/>
      <point x="403" y="285.92"/>
      <point x="321.52" y="296.28" type="curve" smooth="yes"/>
      <point x="209.92" y="309.16" type="line" smooth="yes"/>
      <point x="171.88" y="314"/>
      <point x="162.24" y="322.44"/>
      <point x="162.24" y="363.84" type="curve" smooth="yes"/>
      <point x="162.24" y="415.76"/>
      <point x="177.6" y="426.4"/>
      <point x="253.4" y="426.4" type="curve" smooth="yes"/>
      <point x="306.76" y="426.4"/>
      <point x="372.72" y="421.28"/>
      <point x="414.76" y="413.6" type="curve"/>
      <point x="414.76" y="504.4" type="line"/>
      <point x="366.96" y="513.48"/>
      <point x="303.84" y="518.4"/>
      <point x="252.92" y="518.4" type="curve" smooth="yes"/>
      <point x="96.6" y="518.4"/>
      <point x="50.64" y="482"/>
      <point x="50.64" y="360.2" type="curve" smooth="yes"/>
      <point x="50.64" y="263.4"/>
      <point x="84.36" y="228.28"/>
      <point x="162.4" y="218.28" type="curve" smooth="yes"/>
      <point x="274" y="205.2" type="line" smooth="yes"/>
      <point x="314.84" y="200"/>
      <point x="323.6" y="192.08"/>
      <point x="323.6" y="149" type="curve" smooth="yes"/>
      <point x="323.6" y="95.24"/>
      <point x="307.2" y="83.8"/>
      <point x="228.08" y="83.8" type="curve" smooth="yes"/>
      <point x="170.92" y="83.8"/>
      <point x="100.4" y="88.92"/>
      <point x="55.36" y="96.6" type="curve"/>
      <point x="55.36" y="5.8" type="line"/>
      <point x="106.52" y="-3.28"/>
      <point x="174.56" y="-8.2"/>
    </contour>
  </outline>
</glyph>
<glyph name="v.001" format="2">
  <advance width="537.4"/>
  <anchor x="300.125" y="0" name="bottom"/>
  <anchor x="300.125" y="510" name="top"/>
  <outline>
    <contour>
      <point x="188.24" y="0" type="line"/>
      <point x="349.16" y="0" type="line"/>
      <point x="510.6" y="510" type="line"/>
      <point x="398.36" y="510" type="line"/>
      <point x="270.8" y="80.2" type="line"/>
      <point x="266.8" y="80.2" type="line"/>
      <point x="139.24" y="510" type="line"/>
      <point x="26.8" y="510" type="line"/>
    </contour>
  </outline>
</glyph>
